<svg width="190" height="34" viewBox="0 0 190 34" fill="none" xmlns="http://www.w3.org/2000/svg">
<g clip-path="url(#clip0_6379_226241)">
<path d="M16.6908 10.4971C19.3138 10.4971 21.4402 8.37456 21.4402 5.75634C21.4402 3.13812 19.3138 1.01562 16.6908 1.01562C14.0678 1.01562 11.9414 3.13812 11.9414 5.75634C11.9414 8.37456 14.0678 10.4971 16.6908 10.4971Z" fill="#FF0404"/>
<path d="M0 9.05135V0H11.0708V11.3922H22.3148V0H33.3856V9.05135C33.3856 10.0195 33.3856 11.0211 33.2203 12.0757C33.0826 12.9555 32.815 13.961 32.2621 15.0234C31.5893 16.3156 30.6666 17.3623 29.7379 18.138C28.7286 18.9825 27.6308 19.5893 26.4169 19.9683C25.4509 20.2708 24.5222 20.3906 23.6329 20.4357C23.1922 20.4593 22.7515 20.4357 22.3167 20.3729V33.7113H11.0728V20.3729C10.638 20.4377 10.1973 20.4593 9.75656 20.4357C8.86727 20.3886 7.93864 20.2708 6.97262 19.9683C5.75871 19.5893 4.66088 18.9825 3.65158 18.138C2.72294 17.3604 1.79824 16.3156 1.12735 15.0234C0.574494 13.961 0.306921 12.9555 0.1692 12.0757C0.0039349 11.0211 0.00393489 10.0195 0.00393489 9.05135H0Z" fill="#0400F4"/>
<path d="M51.1492 25.6959V33.5591H44.934V25.6016L36.5547 11.6289H43.1141L48.3239 20.3385L53.5337 11.6289H59.56L51.1492 25.6959Z" fill="#0400F4"/>
<path d="M58.4922 22.5954C58.4922 16.0166 63.6705 11.1914 70.7021 11.1914C77.7338 11.1914 82.9121 16.0166 82.9121 22.5954C82.9121 29.1743 77.7338 33.9995 70.7021 33.9995C63.6705 33.9995 58.4922 29.1743 58.4922 22.5954ZM76.634 22.5954C76.634 18.8052 74.0291 16.3288 70.7021 16.3288C67.3752 16.3288 64.7703 18.8033 64.7703 22.5954C64.7703 26.3876 67.3752 28.8621 70.7021 28.8621C74.0291 28.8621 76.634 26.3876 76.634 22.5954Z" fill="#0400F4"/>
<path d="M84.7031 31.5879L86.7434 27.0141C88.6892 28.2984 91.4515 29.1763 93.9934 29.1763C96.5353 29.1763 97.5722 28.4555 97.5722 27.3911C97.5722 23.9132 85.0809 26.4504 85.0809 18.3064C85.0809 14.3905 88.2819 11.1953 94.8099 11.1953C97.6666 11.1953 100.616 11.8532 102.782 13.1061L100.868 17.7113C98.7644 16.5841 96.6927 16.0205 94.7784 16.0205C92.1735 16.0205 91.2311 16.8983 91.2311 17.9941C91.2311 21.3464 103.691 18.8406 103.691 26.9237C103.691 30.7454 100.49 34.0034 93.9619 34.0034C90.3517 34.0034 86.7748 33.0313 84.7031 31.5918V31.5879Z" fill="#0400F4"/>
<path d="M127.513 11.6309V33.5611H121.298V25.0086H112.825V33.5611H106.609V11.6309H112.825V19.8711H121.298V11.6309H127.513Z" fill="#0400F4"/>
<path d="M131.969 11.6309H138.184V33.5611H131.969V11.6309Z" fill="#0400F4"/>
<path d="M142.672 11.6309H153.06C160.341 11.6309 165.333 15.861 165.333 22.597C165.333 29.3329 160.341 33.563 153.06 33.563H142.672V11.6309ZM152.81 28.6102C156.544 28.6102 159.057 26.3852 159.057 22.595C159.057 18.8048 156.546 16.5797 152.81 16.5797H148.887V28.6102H152.81Z" fill="#0400F4"/>
<path d="M181.81 29.2995H172.52L170.794 33.5611H164.453L174.151 11.6309H180.271L190 33.5611H183.535L181.81 29.2995ZM179.988 24.7258L177.163 17.707L174.338 24.7258H179.988Z" fill="#0400F4"/>
</g>
<defs>
<clipPath id="clip0_6379_226241">
<rect width="190" height="34" fill="white"/>
</clipPath>
</defs>
</svg>
